<?xml version="1.0" encoding="UTF-8"?>
<svg width="13px" height="26px" viewBox="0 0 13 26" version="1.1" xmlns="http://www.w3.org/2000/svg" xmlns:xlink="http://www.w3.org/1999/xlink">
    <!-- Generator: Sketch 61.2 (89653) - https://sketch.com -->
    <title>money</title>
    <desc>Created with Sketch.</desc>
    <g id="Visual" stroke="none" stroke-width="1" fill="none" fill-rule="evenodd">
        <g id="Homepage" transform="translate(-207.000000, -739.000000)" fill="#473080" fill-rule="nonzero">
            <g id="money" transform="translate(207.000000, 739.000000)">
                <path d="M9.98929419,11.8107115 C9.00475977,11.2468761 7.95804424,10.8172872 6.92169223,10.3715887 C6.32060806,10.1138353 5.74543269,9.81312312 5.2376202,9.39427394 C4.23754051,8.56731531 4.42926563,7.22484999 5.60034341,6.69323373 C5.93197605,6.54287761 6.27915398,6.49454886 6.63151366,6.47306942 C7.9891348,6.39789136 9.27939306,6.6556447 10.5074702,7.26780888 C11.1189179,7.57389097 11.3210065,7.47723347 11.5282769,6.81674054 C11.7459109,6.11865857 11.9272725,5.40983689 12.1293611,4.70638506 C12.2640869,4.23383727 12.0982705,3.92238532 11.6681844,3.72370045 C10.8805569,3.36391975 10.0722023,3.10616641 9.2223937,2.96655002 C8.11349704,2.7893446 8.11349704,2.78397473 8.10831528,1.62945456 C8.10313352,0.002386605 8.10313352,0.002386605 6.52787846,0.002386605 C6.29988102,0.002386605 6.07188358,-0.00298325625 5.84388613,0.002386605 C5.1080762,0.02386605 4.98371396,0.158112581 4.96298692,0.926002741 C4.9526234,1.26967386 4.96298692,1.61334498 4.95780516,1.96238596 C4.9526234,2.9826596 4.94744164,2.96655002 4.00436131,3.32096086 C1.72438688,4.18013866 0.314948139,5.79109704 0.164677097,8.36863044 C0.0299513351,10.6508215 1.18030207,12.1919717 2.98873633,13.3142727 C4.10281475,14.0069848 5.33607365,14.4150942 6.51751494,14.9574502 C6.97869159,15.1668748 7.41914119,15.4085185 7.80259144,15.7414499 C8.93739689,16.7133948 8.73012649,18.3297231 7.38286887,18.9418872 C6.66260422,19.2694488 5.90088549,19.3499967 5.11843972,19.2479693 C3.91108963,19.0922434 2.75555713,18.7646818 1.66738752,18.1793669 C1.03003103,17.8356958 0.843487666,17.9269835 0.625853743,18.641175 C0.439310381,19.2587091 0.273494058,19.881613 0.107677736,20.5045169 C-0.115137947,21.3422152 -0.0322297857,21.5409001 0.739852465,21.9329 C1.72438688,22.4269272 2.77628417,22.6793107 3.84890851,22.8565161 C4.68835364,22.9961325 4.71426244,23.0337215 4.72462596,23.9358582 C4.72980772,24.3439677 4.72980772,24.757447 4.73498948,25.1655564 C4.74017124,25.6810631 4.9785322,25.9817754 5.49152645,25.9925151 C6.07188358,26.0032548 6.65742246,26.0032548 7.23777959,25.9871452 C7.71450152,25.9764055 7.95804424,25.7079124 7.95804424,25.2085153 C7.95804424,24.6500498 7.98395304,24.0862143 7.963226,23.5277488 C7.9373172,22.9585435 8.17567816,22.668571 8.70421769,22.5182148 C9.92193131,22.1745437 10.9582833,21.4979412 11.7562744,20.4884073 C13.9740677,17.6960794 13.1294408,13.609615 9.98929419,11.8107115 Z" id="Path"></path>
            </g>
        </g>
    </g>
</svg>