<?xml version="1.0" encoding="UTF-8"?>
<svg width="31px" height="26px" viewBox="0 0 31 26" version="1.1" xmlns="http://www.w3.org/2000/svg" xmlns:xlink="http://www.w3.org/1999/xlink">
    <!-- Generator: Sketch 61.2 (89653) - https://sketch.com -->
    <title>weight</title>
    <desc>Created with Sketch.</desc>
    <g id="Visual" stroke="none" stroke-width="1" fill="none" fill-rule="evenodd">
        <g id="Homepage" transform="translate(-239.000000, -739.000000)" fill="#32DBAE" fill-rule="nonzero">
            <g id="weight" transform="translate(239.000000, 739.000000)">
                <path d="M19.3512797,23.7987498 L17.2760756,23.7987498 L17.2760756,5.18196974 L26.0217245,5.18196974 L22.3172369,10.9361407 C22.1293734,11.2279007 22.218748,11.6136738 22.5168673,11.7975052 C22.622566,11.8627551 22.7400997,11.8937155 22.856409,11.8937155 C23.0682826,11.8937155 23.2754629,11.7904476 23.3967375,11.6022218 L26.609529,6.61167378 L29.8221844,11.6022218 C30.0101159,11.8939818 30.4042074,11.9814699 30.7021907,11.7975052 C31,11.6136738 31.0894805,11.2279007 30.9016851,10.9361407 L27.1973334,5.18196974 L27.2441293,5.18196974 C27.7902392,5.18196974 28.233031,4.74852432 28.233031,4.21394165 C28.233031,3.67942556 27.7903072,3.24598014 27.2441293,3.24598014 L19.9692838,3.24598014 C19.5584601,2.66099529 18.9521549,2.21809531 18.2423276,2.00783101 C18.140914,0.882537471 17.1760223,0 16.0000733,0 C14.8240563,0 13.8592326,0.882537471 13.7577509,2.00783101 C13.0479237,2.21809531 12.4416185,2.66099529 12.0308628,3.24598014 L4.75601734,3.24598014 C4.20983939,3.24598014 3.76704755,3.67942556 3.76704755,4.21394165 C3.76704755,4.74852432 4.20977137,5.18196974 4.75601734,5.18196974 L4.80281316,5.18196974 L1.0983255,10.9361407 C0.910462048,11.2279007 1,11.6136738 1.2978879,11.7975052 C1.4035866,11.8627551 1.5211883,11.8937155 1.63742966,11.8937155 C1.84923516,11.8937155 2.05655152,11.7904476 2.17782615,11.6022218 L5.39061762,6.61167378 L8.60334107,11.6022218 C8.79120452,11.8939818 9.18522804,11.9814699 9.48327932,11.7975052 C9.78139862,11.6136738 9.87070518,11.2279007 9.68290975,10.9361407 L5.9784901,5.18196974 L14.724139,5.18196974 L14.724139,23.7986166 L12.6490029,23.7986166 C11.4070772,23.7986166 10.4002189,24.7842888 10.4002189,26 L21.5999957,26 C21.5999957,24.7842888 20.5931374,23.7987498 19.3512797,23.7987498 Z" id="Path"></path>
                <path d="M9.66217677,13 L0.337755681,13 C0.151246994,13 0,13.1416151 0,13.3163876 C0,15.8989331 2.24296793,18 5,18 C7.75696452,18 10,15.8989331 10,13.3163876 C10,13.1416784 9.84868545,13 9.66217677,13 Z" id="Path"></path>
                <path d="M30.6621768,13 L21.3377557,13 C21.151247,13 21,13.1416151 21,13.3163876 C21,15.8989331 23.2429679,18 26.0000676,18 C28.7570321,18 31,15.8989331 31,13.3163876 C31,13.1416784 30.8486855,13 30.6621768,13 Z" id="Path"></path>
            </g>
        </g>
    </g>
</svg>